<?xml version="1.0" encoding="iso-8859-1"?>
<!-- Generator: Adobe Illustrator 18.0.0, SVG Export Plug-In . SVG Version: 6.00 Build 0)  -->
<!DOCTYPE svg PUBLIC "-//W3C//DTD SVG 1.1//EN" "http://www.w3.org/Graphics/SVG/1.1/DTD/svg11.dtd">
<svg version="1.1" id="Capa_1" xmlns="http://www.w3.org/2000/svg" xmlns:xlink="http://www.w3.org/1999/xlink" x="0px" y="0px"
	 viewBox="0 0 297 297" style="enable-background:new 0 0 297 297;" xml:space="preserve">
<g>
	<path d="M211.133,123.063c1.901,0.213,6.993,0.706,13.198,0.706c14.501,0,25.075-2.588,29.776-7.289
		c6.992-6.992,14.182-32.321,18.206-54.32c0.059-0.32-0.044-0.646-0.272-0.875c-0.187-0.187-0.438-0.289-0.697-0.289
		c-0.058,0-0.117,0.005-0.175,0.015c-22.003,4.024-47.33,11.214-54.324,18.207c-7.076,7.074-8.404,26.681-6.583,42.974
		C210.313,122.653,210.671,123.012,211.133,123.063z"/>
	<path d="M154.182,94.581c7.224,7.225,25.139,10.631,41.577,11.631c0.29-12.608,2.636-28.057,11.296-36.74
		c-1.537-8.79-4.098-16.043-7.91-19.855c-8.459-8.459-39.179-17.173-65.873-22.056c-0.06-0.011-0.12-0.016-0.179-0.016
		c-0.26,0-0.51,0.102-0.696,0.289c-0.229,0.228-0.331,0.555-0.273,0.873C137.008,55.402,145.722,86.122,154.182,94.581z"/>
	<path d="M287.133,249.72h-42.16c-4.221-13.646-16.956-23.589-31.971-23.589c-1.912,0-3.876,0.175-5.838,0.52
		c-2.599,0.458-5.274-0.146-7.426-1.675c-2.152-1.529-3.601-3.856-4.024-6.462c-0.642-3.955-4.013-6.824-8.018-6.824
		c-0.546,0-1.094,0.055-1.628,0.163c-2.928,0.59-5.966-0.175-8.264-2.085c-2.297-1.91-3.606-4.758-3.557-7.745l0.008-0.278
		c-0.042-10.449-8.556-18.936-19.014-18.936c-6.815,0-13.152,3.69-16.535,9.631c-1.906,3.346-5.595,5.276-9.419,4.947
		c-1.074-0.092-2.031-0.137-2.928-0.137c-15.057,0-28.329,10.138-32.277,24.654c-0.737,2.711-2.595,4.979-5.107,6.235
		c-2.513,1.258-5.443,1.383-8.053,0.347c-3.939-1.563-8.086-2.355-12.326-2.355c-15.015,0-27.75,9.942-31.971,23.589H9.867
		c-5.449,0-9.867,4.418-9.867,9.867s4.418,9.867,9.867,9.867h277.266c5.449,0,9.867-4.418,9.867-9.867
		S292.582,249.72,287.133,249.72z"/>
	<path d="M200.247,132.006v62.909c5.015,2.518,9.176,6.514,11.89,11.49c2.663-0.041,5.281,0.123,7.845,0.462v-69.356
		c-4.881-0.157-8.72-0.533-10.382-0.719C205.871,136.376,202.6,134.615,200.247,132.006z"/>
</g>
<g>
</g>
<g>
</g>
<g>
</g>
<g>
</g>
<g>
</g>
<g>
</g>
<g>
</g>
<g>
</g>
<g>
</g>
<g>
</g>
<g>
</g>
<g>
</g>
<g>
</g>
<g>
</g>
<g>
</g>
</svg>
